<svg xmlns="http://www.w3.org/2000/svg" width="18" height="19" viewBox="0 0 18 19"><defs><style>.a{fill:#f5f6fa;}.b{fill:#f59c23;stroke:#fff;}.c{fill:#fff;font-size:8px;font-family:SourceSansPro-Semibold, Source Sans Pro;font-weight:600;}.d{stroke:none;}.e{fill:none;}</style></defs><g transform="translate(0 5)"><path class="a" d="M5.25,12.25h3.5a1.75,1.75,0,0,1-3.5,0ZM.875,11.375a.875.875,0,0,1,0-1.75h.438A3.809,3.809,0,0,0,2.625,7V4.375A4.333,4.333,0,0,1,7,0a4.332,4.332,0,0,1,4.374,4.375V7a3.807,3.807,0,0,0,1.313,2.625h.438a.875.875,0,0,1,0,1.75Z"/></g><g class="b" transform="translate(8 1)"><circle class="d" cx="4.5" cy="4.5" r="4.5"/><circle class="e" cx="4.5" cy="4.5" r="5"/></g><text class="c" transform="translate(11 8)"><tspan x="0" y="0">3</tspan></text></svg>