<svg xmlns="http://www.w3.org/2000/svg" width="16" height="15.518" viewBox="0 0 16 15.518"><defs><style>.a{fill:#f5f6fa;}</style></defs><path class="a" d="M7.186,0C3.217,0,0,2.425,0,5.418A4.476,4.476,0,0,0,1.106,8.3v3.525L4.089,10.3a9.127,9.127,0,0,0,3.1.534c3.969,0,7.186-2.425,7.186-5.418S11.155,0,7.186,0Z"/><path class="a" d="M14.778,9.171a3.318,3.318,0,0,0-1-2.31c-.638,3.052-3.67,5.374-7.312,5.374-.09,0-.177-.016-.267-.018a6.38,6.38,0,0,0,3.331.894,6.973,6.973,0,0,0,1.144-.1L13.9,14.861v-3.5h-.011A3.272,3.272,0,0,0,14.778,9.171Z" transform="translate(1.222 0.657)"/></svg>