<svg xmlns="http://www.w3.org/2000/svg" width="11.251" height="15" viewBox="0 0 11.251 15"><defs><style>.a{fill:#808495;fill-rule:evenodd;}</style></defs><path class="a" d="M12.5,10.736a2.5,2.5,0,1,0-2.5-2.5A2.5,2.5,0,0,0,12.5,10.736Zm0-4.575a2.079,2.079,0,1,1-2.079,2.079A2.081,2.081,0,0,1,12.5,6.162Z" transform="translate(-6.871 -2.87)"/><path class="a" d="M9.625,0A5.611,5.611,0,0,0,4,5.625c0,3.281,2.813,6.638,4.864,9A1.145,1.145,0,0,0,9.607,15h.036a1.147,1.147,0,0,0,.743-.377c2.052-2.359,4.864-5.715,4.864-9A5.611,5.611,0,0,0,9.625,0ZM9.68,14.008a.569.569,0,0,1-.063.046.468.468,0,0,0-.06-.062C7.838,12.015,4.938,8.678,4.938,5.625a4.688,4.688,0,1,1,9.376,0C14.313,8.678,11.413,12.015,9.68,14.008Z" transform="translate(-4)"/></svg>