<svg xmlns="http://www.w3.org/2000/svg" xmlns:xlink="http://www.w3.org/1999/xlink" width="16.522" height="15.421" viewBox="0 0 16.522 15.421"><defs><style>.a{fill:none;}.b{clip-path:url(#a);}.c{fill:#cecfd0;}</style><clipPath id="a"><rect class="a" width="16.522" height="15.421"/></clipPath></defs><g class="b"><path class="c" d="M7.976,0a7.976,7.976,0,1,0,7.976,7.976A8,8,0,0,0,7.976,0Zm0,9.97A1.994,1.994,0,1,1,9.97,7.976,2,2,0,0,1,7.976,9.97Zm0-7.976a5.817,5.817,0,0,1,2.592.6L9.017,4.143a3.58,3.58,0,0,0-2.083,0L5.384,2.592A5.817,5.817,0,0,1,7.976,1.994ZM1.994,7.976a5.817,5.817,0,0,1,.6-2.592L4.143,6.935a3.58,3.58,0,0,0,0,2.083l-1.551,1.55A5.817,5.817,0,0,1,1.994,7.976Zm5.982,5.982a5.817,5.817,0,0,1-2.592-.6l1.551-1.551a3.58,3.58,0,0,0,2.083,0l1.55,1.551A5.817,5.817,0,0,1,7.976,13.958Zm5.384-3.39L11.808,9.017a3.58,3.58,0,0,0,0-2.083l1.551-1.55a5.915,5.915,0,0,1,0,5.184Z"/></g></svg>