<svg xmlns="http://www.w3.org/2000/svg" xmlns:xlink="http://www.w3.org/1999/xlink" width="28.394" height="27.113" viewBox="0 0 28.394 27.113"><defs><style>.a{fill:none;}.a,.b{stroke:#808495;stroke-miterlimit:10;stroke-width:2px;}.b{fill:rgba(224,24,24,0);}.c{filter:url(#k);}.d{filter:url(#i);}.e{filter:url(#g);}.f{filter:url(#e);}.g{filter:url(#c);}.h{filter:url(#a);}</style><filter id="a" x="0.462" y="0.551" width="20.201" height="20.201" filterUnits="userSpaceOnUse"><feOffset dy="3" input="SourceAlpha"/><feGaussianBlur stdDeviation="3" result="b"/><feFlood flood-opacity="0.161"/><feComposite operator="in" in2="b"/><feComposite in="SourceGraphic"/></filter><filter id="c" x="0" y="3.8" width="19" height="20" filterUnits="userSpaceOnUse"><feOffset dy="3" input="SourceAlpha"/><feGaussianBlur stdDeviation="3" result="d"/><feFlood flood-opacity="0.161"/><feComposite operator="in" in2="d"/><feComposite in="SourceGraphic"/></filter><filter id="e" x="3.709" y="0" width="20" height="19" filterUnits="userSpaceOnUse"><feOffset dy="3" input="SourceAlpha"/><feGaussianBlur stdDeviation="3" result="f"/><feFlood flood-opacity="0.161"/><feComposite operator="in" in2="f"/><feComposite in="SourceGraphic"/></filter><filter id="g" x="9.394" y="3.8" width="19" height="20" filterUnits="userSpaceOnUse"><feOffset dy="3" input="SourceAlpha"/><feGaussianBlur stdDeviation="3" result="h"/><feFlood flood-opacity="0.161"/><feComposite operator="in" in2="h"/><feComposite in="SourceGraphic"/></filter><filter id="i" x="7.337" y="0.551" width="20.201" height="20.201" filterUnits="userSpaceOnUse"><feOffset dy="3" input="SourceAlpha"/><feGaussianBlur stdDeviation="3" result="j"/><feFlood flood-opacity="0.161"/><feComposite operator="in" in2="j"/><feComposite in="SourceGraphic"/></filter><filter id="k" x="3.777" y="3.084" width="22.715" height="24.029" filterUnits="userSpaceOnUse"><feOffset dy="3" input="SourceAlpha"/><feGaussianBlur stdDeviation="3" result="l"/><feFlood flood-opacity="0.161"/><feComposite operator="in" in2="l"/><feComposite in="SourceGraphic"/></filter></defs><g transform="translate(7 4.091)"><g class="h" transform="matrix(1, 0, 0, 1, -7, -4.09)"><line class="a" x2="0.787" y2="0.787" transform="translate(10.17 7.26)"/></g><g class="g" transform="matrix(1, 0, 0, 1, -7, -4.09)"><line class="a" x2="1" transform="translate(9 10.8)"/></g><g class="f" transform="matrix(1, 0, 0, 1, -7, -4.09)"><line class="a" y2="1" transform="translate(13.71 6)"/></g><path class="b" d="M10,16.231a13.369,13.369,0,0,1,5.492,1.131A6.805,6.805,0,0,0,17,13,7,7,0,0,0,3,13a7.123,7.123,0,0,0,1.508,4.362A13.369,13.369,0,0,1,10,16.231Z" transform="translate(-3 -6)"/><g class="e" transform="matrix(1, 0, 0, 1, -7, -4.09)"><line class="a" x1="1" transform="translate(18.39 10.8)"/></g><g class="d" transform="matrix(1, 0, 0, 1, -7, -4.09)"><line class="a" x1="0.787" y2="0.787" transform="translate(17.04 7.26)"/></g><g class="c" transform="matrix(1, 0, 0, 1, -7, -4.09)"><line class="a" y1="5" x2="3" transform="translate(13.63 9.6)"/></g></g></svg>