<svg xmlns="http://www.w3.org/2000/svg" width="14.482" height="14.482" viewBox="0 0 14.482 14.482"><defs><style>.a{fill:#808495;fill-rule:evenodd;}</style></defs><path class="a" d="M1.81,4.526v8.146H12.672V4.526ZM11.767,1.81h1.81a.855.855,0,0,1,.905.905V13.577a.855.855,0,0,1-.905.905H.905A.855.855,0,0,1,0,13.577V2.715A.855.855,0,0,1,.905,1.81h1.81V.905A.855.855,0,0,1,3.621,0a.855.855,0,0,1,.905.905V1.81H9.956V.905a.905.905,0,1,1,1.81,0Zm-.905,9.051H9.051V9.051h1.81Zm-2.715,0H6.336V9.051h1.81Zm2.715-2.715H9.051V6.336h1.81Zm-2.715,0H6.336V6.336h1.81ZM5.431,10.862H3.621V9.051h1.81Z"/></svg>