<svg xmlns="http://www.w3.org/2000/svg" width="16.522" height="16.522" viewBox="0 0 16.522 16.522"><defs><style>.a{fill:none;}.b{fill:#cecfd0;fill-rule:evenodd;}</style></defs><rect class="a" width="16.522" height="16.522"/><path class="b" d="M1.994,4.985v8.973H13.958V4.985ZM12.961,1.994h1.994a.942.942,0,0,1,1,1V14.955a.942.942,0,0,1-1,1H1a.942.942,0,0,1-1-1V2.991a.942.942,0,0,1,1-1H2.991V1a.942.942,0,0,1,1-1,.942.942,0,0,1,1,1v1h5.982V1a1,1,0,1,1,1.994,0Zm-1,9.97H9.97V9.97h1.994Zm-2.991,0H6.979V9.97H8.973Zm2.991-2.991H9.97V6.979h1.994Zm-2.991,0H6.979V6.979H8.973ZM5.982,11.964H3.988V9.97H5.982Z"/></svg>