<svg xmlns="http://www.w3.org/2000/svg" width="14" height="11" viewBox="0 0 14 11"><defs><style>.a{fill:#808495;}</style></defs><path class="a" d="M8,138h5v-1H8Zm-3-4h8v-1H5Zm5-4h3v-1H10Zm4,6.5v2a.507.507,0,0,1-.5.5H.5a.48.48,0,0,1-.352-.148A.48.48,0,0,1,0,138.5v-2a.481.481,0,0,1,.148-.352A.481.481,0,0,1,.5,136h13a.507.507,0,0,1,.5.5Zm0-4v2a.507.507,0,0,1-.5.5H.5a.48.48,0,0,1-.352-.148A.481.481,0,0,1,0,134.5v-2a.48.48,0,0,1,.148-.352A.48.48,0,0,1,.5,132h13a.507.507,0,0,1,.5.5Zm0-4v2a.507.507,0,0,1-.5.5H.5a.48.48,0,0,1-.352-.148A.481.481,0,0,1,0,130.5v-2a.481.481,0,0,1,.148-.352A.48.48,0,0,1,.5,128h13a.507.507,0,0,1,.5.5Z" transform="translate(0 -128)"/></svg>