<svg xmlns="http://www.w3.org/2000/svg" width="14" height="14.001" viewBox="0 0 14 14.001"><defs><style>.a{fill:#808495;}</style></defs><path class="a" d="M6.5,1.75A1.755,1.755,0,0,1,8.25,3.5v.875a1.75,1.75,0,1,1-3.5,0V3.5A1.755,1.755,0,0,1,6.5,1.75M6.5,0A3.51,3.51,0,0,0,3,3.5v.875a3.5,3.5,0,1,0,7,0V3.5A3.51,3.51,0,0,0,6.5,0Z" transform="translate(-0.375)"/><path class="a" d="M13.5,10H11.75v1.75H10V13.5h1.75v1.75H13.5V13.5h1.75V11.75H13.5Z" transform="translate(-1.25 -1.25)"/><path class="a" d="M7,15.25H0v-.875A4.333,4.333,0,0,1,4.375,10H7v1.75H4.375a2.549,2.549,0,0,0-2.45,1.75H7Z" transform="translate(0 -1.25)"/></svg>