<?xml version="1.0" encoding="utf-8"?>
<!-- Generator: Adobe Illustrator 24.1.2, SVG Export Plug-In . SVG Version: 6.00 Build 0)  -->
<svg version="1.1" width="18.319" height="18.522" id="Layer_1" xmlns="http://www.w3.org/2000/svg" xmlns:xlink="http://www.w3.org/1999/xlink" x="0px" y="0px"
	 viewBox="0 0 8 6.8" style="enable-background:new 0 0 8 6.8;" xml:space="preserve">
<style type="text/css">
	.st0{fill:none;stroke:#808495;stroke-miterlimit:5;}
</style>
<g transform="translate(7 4.091)">
	<g transform="matrix(1, 0, 0, 1, -7, -4.09)">
		<line class="st0" x1="2.1" y1="2.1" x2="2.5" y2="2.5"/>
	</g>
	<g transform="matrix(1, 0, 0, 1, -7, -4.09)">
		<line class="st0" x1="1.5" y1="3.9" x2="2" y2="3.9"/>
	</g>
	<g transform="matrix(1, 0, 0, 1, -7, -4.09)">
		<line class="st0" x1="3.9" y1="1.5" x2="3.9" y2="2"/>
	</g>
	<path class="st0" d="M-3,1.5c0.9,0,1.9,0.2,2.7,0.6c0.5-0.6,0.8-1.4,0.8-2.2C0.5-2-1.1-3.6-3-3.6S-6.5-2-6.5-0.1
		c0,0.8,0.3,1.6,0.8,2.2C-4.9,1.7-3.9,1.5-3,1.5z"/>
	<g transform="matrix(1, 0, 0, 1, -7, -4.09)">
		<line class="st0" x1="6.7" y1="3.9" x2="6.2" y2="3.9"/>
	</g>
	<g transform="matrix(1, 0, 0, 1, -7, -4.09)">
		<line class="st0" x1="5.9" y1="2.1" x2="5.5" y2="2.5"/>
	</g>
	<g transform="matrix(1, 0, 0, 1, -7, -4.09)">
		<line class="st0" x1="3.8" y1="5.8" x2="5.3" y2="3.3"/>
	</g>
</g>
</svg>
