<svg xmlns="http://www.w3.org/2000/svg" xmlns:xlink="http://www.w3.org/1999/xlink" width="16.522" height="15.421" viewBox="0 0 16.522 15.421"><defs><style>.a{fill:none;}.b{clip-path:url(#a);}.c{fill:#cecfd0;}</style><clipPath id="a"><rect class="a" width="16.522" height="15.421"/></clipPath></defs><g class="b"><path class="c" d="M13.425,16.522a.976.976,0,0,1-1.033-1.033V6.2a.976.976,0,0,1,1.033-1.033H15.49A.976.976,0,0,1,16.522,6.2V15.49a.976.976,0,0,1-1.033,1.033Zm-6.2,0A.975.975,0,0,1,6.2,15.49V1.033A.976.976,0,0,1,7.229,0H9.294a.976.976,0,0,1,1.033,1.033V15.49a.975.975,0,0,1-1.033,1.033Zm-6.2,0A.976.976,0,0,1,0,15.49V11.36a.976.976,0,0,1,1.033-1.033H3.1A.977.977,0,0,1,4.131,11.36v4.13A.976.976,0,0,1,3.1,16.522Z"/></g></svg>