<svg xmlns="http://www.w3.org/2000/svg" xmlns:xlink="http://www.w3.org/1999/xlink" width="16.522" height="15.421" viewBox="0 0 16.522 15.421"><defs><style>.a{fill:none;}.b{clip-path:url(#a);}.c{fill:#cecfd0;}</style><clipPath id="a"><rect class="a" width="16.522" height="15.421"/></clipPath></defs><g class="b"><path class="c" d="M13.26,5.184l1.1-2.094-1.4-1.4-2.094,1.1a3.572,3.572,0,0,0-1.1-.4L8.973,0H6.979l-.8,2.293a4.167,4.167,0,0,0-1,.4L3.091,1.6l-1.5,1.5,1.1,2.094a4.167,4.167,0,0,0-.4,1L0,6.979V8.973l2.293.8c.1.4.3.7.4,1.1L1.6,12.961l1.4,1.4,2.094-1.1a3.571,3.571,0,0,0,1.1.4l.8,2.293H8.973l.8-2.293c.4-.1.7-.3,1.1-.4l2.094,1.1,1.4-1.4-1.1-2.094a3.571,3.571,0,0,0,.4-1.1l2.293-.8V6.979l-2.293-.8A4.166,4.166,0,0,0,13.26,5.184ZM7.976,10.967A2.938,2.938,0,0,1,4.985,7.976,2.938,2.938,0,0,1,7.976,4.985a2.938,2.938,0,0,1,2.991,2.991A2.938,2.938,0,0,1,7.976,10.967Z"/></g></svg>